Coordinates
version=1
nRows=19
nColumns=24
inDegrees=yes

Units are S.I. units (second, meters, Newtons, ...)
Angles are in degrees.

endheader
time	pelvis_tilt	pelvis_list	pelvis_rotation	pelvis_tx	pelvis_ty	pelvis_tz	hip_flexion_r	hip_adduction_r	hip_rotation_r	knee_angle_r	ankle_angle_r	subtalar_angle_r	mtp_angle_r	hip_flexion_l	hip_adduction_l	hip_rotation_l	knee_angle_l	ankle_angle_l	subtalar_angle_l	mtp_angle_l	lumbar_extension	lumbar_bending	lumbar_rotation
      5.75000000	     33.75064010	      1.53484330	      7.08975676	      2.34649615	      0.67305623	     -0.30111934	    -29.57121607	      6.25150990	     -7.61339102	    -15.27498462	     20.96875442	      6.93864266	      0.00000000	    -19.37113435	     -6.52681206	     -6.98120662	    -67.36680381	      6.29634262	     -1.34924234	      0.00000000	    -63.47093817	      4.34881679	     -2.76919098
      5.75500000	     33.73200993	      1.68288378	      6.48685884	      2.35337004	      0.67418964	     -0.30099835	    -30.72095935	      5.90151301	     -7.24051685	    -14.30796135	     20.82482397	      7.07458204	      0.00000000	    -18.53514066	     -5.92655530	     -7.50722265	    -66.58985265	      6.99460087	     -1.16778797	      0.00000000	    -63.44477133	      3.83061861	     -2.48924288
      5.76000000	     33.80838649	      1.75145533	      5.83552022	      2.36022368	      0.67525849	     -0.30079718	    -31.94684912	      5.60075820	     -6.87583574	    -13.35307573	     20.64069188	      7.13453931	      0.00000000	    -17.85530409	     -5.43195439	     -8.15062900	    -65.67350144	      7.63512651	     -1.14095636	      0.00000000	    -63.52642375	      3.29632566	     -2.08400321
      5.76500000	     33.77300658	      1.83019148	      5.31099768	      2.36699386	      0.67614193	     -0.30071769	    -33.00124110	      5.32250338	     -6.64255964	    -12.47212904	     20.42779985	      7.21021589	      0.00000000	    -17.00956600	     -4.95621959	     -8.63227124	    -64.72574846	      8.21445493	     -1.02910871	      0.00000000	    -63.51087574	      2.86513703	     -1.77769776
      5.77000000	     33.76283312	      1.87853197	      4.77162367	      2.37375312	      0.67692521	     -0.30064790	    -34.04265818	      5.04903772	     -6.42904722	    -11.65708146	     20.21594855	      7.30386337	      0.00000000	    -16.22978368	     -4.52430988	     -9.14982411	    -63.66730757	      8.73942868	     -0.90114509	      0.00000000	    -63.52783668	      2.45264738	     -1.43590807
      5.77500000	     33.73105016	      1.90128473	      4.27832815	      2.38047370	      0.67757249	     -0.30060074	    -35.02261129	      4.81025810	     -6.26442493	    -10.89650373	     20.01513828	      7.40113391	      0.00000000	    -15.43175990	     -4.14764868	     -9.62476592	    -62.53469952	      9.19875221	     -0.73295937	      0.00000000	    -63.52775773	      2.09410140	     -1.10790634
      5.78000000	     33.74058576	      1.87764796	      3.76634731	      2.38717124	      0.67813393	     -0.30057761	    -36.00537724	      4.58591719	     -6.08631462	    -10.20506747	     19.80569503	      7.52684244	      0.00000000	    -14.72036341	     -3.81916555	    -10.11814459	    -61.29223830	      9.62301339	     -0.56825892	      0.00000000	    -63.57888427	      1.75575679	     -0.72951943
      5.78500000	     33.74408846	      1.81398195	      3.29225013	      2.39382999	      0.67857211	     -0.30060065	    -36.93917606	      4.40311198	     -5.94568227	     -9.58125731	     19.60646593	      7.64955508	      0.00000000	    -14.01899472	     -3.55215494	    -10.57494910	    -59.96894634	      9.99558825	     -0.39043158	      0.00000000	    -63.62947334	      1.48407710	     -0.35506733
      5.79000000	     33.59332714	      1.72833650	      3.07055537	      2.40039599	      0.67875600	     -0.30080071	    -37.66519213	      4.37866071	     -5.99533189	     -9.01714846	     19.33500218	      7.68783051	      0.00000000	    -13.06379243	     -3.36878131	    -10.75904960	    -58.68764270	     10.30852646	     -0.29826398	      0.00000000	    -63.55531657	      1.40952469	     -0.08348872
      5.79500000	     33.77844371	      1.57666413	      2.40302326	      2.40708612	      0.67914133	     -0.30072207	    -38.72906507	      4.12486349	     -5.68849256	     -8.52349441	     19.21206194	      7.94798788	      0.00000000	    -12.73616870	     -3.17537255	    -11.43030880	    -57.04813441	     10.59372407	     -0.01554024	      0.00000000	    -63.78189044	      1.05289853	      0.46016618
      5.80000000	     33.76667847	      1.40986829	      2.02153959	      2.41369269	      0.67922540	     -0.30080912	    -39.54118162	      4.04836232	     -5.60949757	     -8.09030670	     19.06638127	      8.11396609	      0.00000000	    -12.09984688	     -3.07267284	    -11.79904239	    -55.47372115	     10.91211523	      0.26148589	      0.00000000	    -63.83719369	      0.90921070	      0.80926465
      5.80500000	     33.72213844	      1.22547758	      1.71023563	      2.42028473	      0.67919133	     -0.30093507	    -40.29338491	      4.02005776	     -5.57599525	     -7.70567037	     18.91263749	      8.29235588	      0.00000000	    -11.43750657	     -3.01149320	    -12.07358808	    -53.83546307	     11.11997485	      0.57811444	      0.00000000	    -63.86811460	      0.82256213	      1.18599629
      5.81000000	     33.59466192	      1.00403353	      1.58273370	      2.42682214	      0.67894626	     -0.30126741	    -40.92854041	      4.12961390	     -5.58610632	     -7.37010174	     18.72104858	      8.36050626	      0.00000000	    -10.65122981	     -3.00555995	    -12.14305180	    -52.18351971	     11.37126470	      0.65259502	      0.00000000	    -63.83075344	      0.92590901	      1.40041896
      5.81500000	     33.81690710	      0.71948658	      0.91693113	      2.43340238	      0.67898904	     -0.30121344	    -41.89571960	      3.91105177	     -5.27179823	     -7.12694405	     18.62838261	      8.68367414	      0.00000000	    -10.53779955	     -2.97900467	    -12.80584752	    -50.14301207	     11.58273617	      1.05631163	      0.00000000	    -64.14409215	      0.63387047	      2.02859256
      5.82000000	     33.73463529	      0.46806888	      0.72495913	      2.43995899	      0.67862248	     -0.30144027	    -42.53678825	      3.98113618	     -5.26610756	     -6.88787105	     18.51188709	      8.87410915	      0.00000000	     -9.93446395	     -3.02673407	    -12.94945050	    -48.25028820	     11.82021672	      1.48969151	      0.00000000	    -64.16211169	      0.68079258	      2.33871732
      5.82500000	     33.79354709	      0.14768728	      0.32758900	      2.44652175	      0.67830348	     -0.30157839	    -43.29575825	      3.94227537	     -5.06479968	     -6.71987150	     18.44591278	      9.14794732	      0.00000000	     -9.63130480	     -3.09204631	    -13.32161109	    -46.14335389	     12.08179455	      1.83619937	      0.00000000	    -64.31564571	      0.61081290	      2.75610395
      5.83000000	     33.81856783	     -0.14562387	      0.00741141	      2.45306971	      0.67789811	     -0.30175775	    -44.00855021	      3.92492442	     -4.89501379	     -6.57503216	     18.31691606	      9.32920431	      0.00000000	     -9.31450657	     -3.14330796	    -13.59463548	    -43.95372478	     12.24232922	      2.22029005	      0.00000000	    -64.45181463	      0.57067188	      3.16087152
      5.83500000	     33.69708654	     -0.42636251	     -0.11400152	      2.45964212	      0.67725426	     -0.30202577	    -44.56670696	      4.03566398	     -4.89248250	     -6.43571933	     18.23471988	      9.53852301	      0.00000000	     -8.80730765	     -3.24176367	    -13.68341786	    -41.77331601	     12.43901025	      2.74552287	      0.00000000	    -64.43964379	      0.67354828	      3.44484186
      5.84000000	     33.74210457	     -0.77807558	     -0.50281911	      2.46624384	      0.67670983	     -0.30218143	    -45.27632077	      3.97908960	     -4.60473954	     -6.36070982	     18.20204720	      9.86148441	      0.00000000	     -8.65988847	     -3.33716427	    -14.03817432	    -39.35894584	     12.66143065	      3.28055396	      0.00000000	    -64.58078551	      0.60760628	      3.85274455
